nColumns=19
nRows=42
DataType=double
version=3
OpenSimVersion=4.1
endheader
time	ground_force_calcn_l_vx	ground_force_calcn_l_vy	ground_force_calcn_l_vz	ground_force_calcn_l_px	ground_force_calcn_l_py	ground_force_calcn_l_pz	ground_force_calcn_l_mx	ground_force_calcn_l_my	ground_force_calcn_l_mz	ground_force_calcn_r_vx	ground_force_calcn_r_vy	ground_force_calcn_r_vz	ground_force_calcn_r_px	ground_force_calcn_r_py	ground_force_calcn_r_pz	ground_force_calcn_r_mx	ground_force_calcn_r_my	ground_force_calcn_r_mz
5.445	44.217	561.388	-43.543	-0.218794	-2.41613e-17	0.0843868	-0.666049	-8.45628	0.655896	0	0	0	0	-2.41613e-17	0	0	0	0
5.45499	35.4225	530.461	-40.1199	-0.208776	-2.30619e-17	0.0828648	-0.493458	-7.38966	0.558896	0	0	0	0	-2.30619e-17	0	0	0	0
5.46498	27.5333	503.89	-36.7914	-0.198595	-2.19455e-17	0.0813371	-0.349941	-6.40432	0.467609	0	0	0	0	-2.19455e-17	0	0	0	0
5.47497	20.4946	482.255	-33.6939	-0.188145	-2.08002e-17	0.0798222	-0.232717	-5.47605	0.382597	0	0	0	0	-2.08002e-17	0	0	0	0
5.48496	14.2397	465.914	-30.9768	-0.177495	-1.96327e-17	0.0782794	-0.141264	-4.62207	0.307303	0	0	0	0	-1.96327e-17	0	0	0	0
5.49495	8.57225	454.882	-28.6979	-0.166757	-1.8454e-17	0.0766516	-0.0730914	-3.87856	0.244693	0	0	0	0	-1.8454e-17	0	0	0	0
5.50494	3.30919	448.963	-26.8787	-0.155913	-1.72614e-17	0.0749419	-0.0240762	-3.26646	0.195558	0	0	0	0	-1.72614e-17	0	0	0	0
5.51494	-1.67748	447.916	-25.5541	-0.144939	-1.60518e-17	0.0731953	0.0105087	-2.80601	0.160086	0	0	0	0	-1.60518e-17	0	0	0	0
5.52493	-6.61086	451.493	-24.8148	-0.133925	-1.48343e-17	0.0713642	0.0372489	-2.54394	0.139819	0	0	0	0	-1.48343e-17	0	0	0	0
5.53492	-11.6215	459.416	-24.697	-0.12299	-1.36222e-17	0.0694227	0.0631803	-2.49762	0.134265	0	0	0	0	-1.36222e-17	0	0	0	0
5.54491	-16.7792	471.39	-25.1981	-0.112199	-1.24235e-17	0.0673961	0.0937197	-2.63293	0.140743	0	0	0	0	-1.24235e-17	0	0	0	0
5.5549	-22.1569	487.064	-26.2509	-0.101494	-1.12315e-17	0.0653769	0.135551	-2.97975	0.160597	0	0	0	0	-1.12315e-17	0	0	0	0
5.56489	-27.8426	506.018	-27.8071	-0.0907814	-1.00359e-17	0.0634114	0.195456	-3.55227	0.195207	0	0	0	0	-1.00359e-17	0	0	0	0
5.57488	-33.8028	527.858	-29.8456	-0.080101	-8.84213e-18	0.0615022	0.273942	-4.27782	0.241872	0	0	0	0	-8.84213e-18	0	0	0	0
5.58487	-39.9617	552.221	-32.332	-0.0696396	-7.67142e-18	0.059642	0.369654	-5.10816	0.299078	0	0	0	0	-7.67142e-18	0	0	0	0
5.59486	-46.3638	578.657	-35.1628	-0.0595182	-6.53764e-18	0.0577943	0.482541	-6.02249	0.365964	0	0	0	0	-6.53764e-18	0	0	0	0
5.60485	-52.961	606.566	-38.2345	-0.0496616	-5.43312e-18	0.0559655	0.608683	-6.9713	0.439431	0	0	0	0	-5.43312e-18	0	0	0	0
5.61484	-59.7074	635.201	-41.5024	-0.0398993	-4.34003e-18	0.0541656	0.738209	-7.85349	0.513126	0	0	0	0	-4.34003e-18	0	0	0	0
5.62483	-66.5943	663.799	-44.9209	-0.0301743	-3.25221e-18	0.0523956	0.866996	-8.64204	0.584828	0	0	0	0	-3.25221e-18	0	0	0	0
5.63483	-73.6111	691.636	-48.3473	-0.0205629	-2.17813e-18	0.0506242	0.994063	-9.34003	0.652894	0	0	0	0	-2.17813e-18	0	0	0	0
5.64482	-80.6764	718.053	-51.6528	-0.0111436	-1.12664e-18	0.0488036	1.11669	-9.93896	0.714954	0	0	0	0	-1.12664e-18	0	0	0	0
5.65481	-87.816	742.419	-54.7789	-0.00191605	-9.72271e-20	0.0468667	1.23814	-10.4676	0.772342	0	0	0	0	-9.72271e-20	0	0	0	0
5.6648	-95.0907	764.042	-57.7183	0.00721237	9.20777e-19	0.0447327	1.36103	-10.9357	0.826118	0	0	0	0	9.20777e-19	0	0	0	0
5.67479	-102.518	782.138	-60.4204	0.0163731	1.94176e-18	0.0423168	1.48194	-11.3062	0.873406	0	0	0	0	1.94176e-18	0	0	0	0
5.68478	-110.12	795.887	-62.7432	0.0256672	2.97694e-18	0.0395724	1.60181	-11.577	0.912664	0	0	0	0	2.97694e-18	0	0	0	0
5.69477	-117.89	804.574	-64.5284	0.0350657	4.02355e-18	0.0364754	1.72743	-11.7894	0.945532	0	0	0	0	4.02355e-18	0	0	0	0
5.70476	-125.707	807.596	-65.6728	0.0444591	5.06934e-18	0.0329449	1.85723	-11.9317	0.97027	0	0	0	0	5.06934e-18	0	0	0	0
5.71475	-133.304	804.371	-66.0867	0.0538281	6.11218e-18	0.02893	1.9884	-11.9983	0.985771	0	0	0	0	6.11218e-18	0	0	0	0
5.72474	-140.486	794.334	-65.607	0.0632286	7.15843e-18	0.0244633	2.12414	-12.0102	0.99197	-0.427871	7.82364	-1.07861	-0.600139	-6.63058e-17	-0.032176	0.00903057	-0.165124	0.0227649
5.73473	-146.936	776.973	-64.0459	0.0727415	8.21627e-18	0.0196491	2.25318	-11.9144	0.982107	-0.633938	23.9083	-2.83619	-0.576252	-6.3775e-17	-0.0416479	0.00971686	-0.366462	0.0434725
5.74472	-152.202	751.977	-61.2909	0.0823462	9.28235e-18	0.0146127	2.35627	-11.6415	0.948857	0.0357264	48.6136	-4.8624	-0.550966	-6.10624e-17	-0.0510145	-0.000344374	-0.468597	0.0468697
5.75472	-155.836	719.33	-57.3343	0.0918973	1.03404e-17	0.00952507	2.42555	-11.1962	0.892394	2.24137	82.0607	-6.7186	-0.523901	-5.8128e-17	-0.0601684	-0.00903371	-0.330741	0.0270789
5.76471	-157.386	679.329	-52.2366	0.101319	1.13821e-17	0.00468236	2.45966	-10.6167	0.816364	6.64288	123.887	-7.91772	-0.495166	-5.49854e-17	-0.0687419	0.0102698	0.191526	-0.0122407
5.7747	-156.399	632.449	-46.1471	0.110736	1.24213e-17	0.000471722	2.45311	-9.91993	0.723814	14.1097	173.272	-7.9179	-0.465639	-5.17312e-17	-0.0760239	0.097015	1.19138	-0.0544418
5.78469	-152.42	579.368	-39.3145	0.120431	1.34886e-17	-0.00264866	2.38783	-9.07644	0.615906	24.7571	229.161	-6.25176	-0.43723	-4.85766e-17	-0.0820135	0.280992	2.60097	-0.0709573
5.79468	-145.421	521.098	-32.0717	0.130588	1.4605e-17	-0.00413575	2.27502	-8.15223	0.501741	38.0994	290.525	-2.73922	-0.411309	-4.56807e-17	-0.0870078	0.591101	4.5074	-0.0424982
5.80467	-135.388	459.125	-24.8045	0.141418	1.57939e-17	-0.00332951	2.10585	-7.14131	0.385814	53.572	356.149	2.56408	-0.388612	-4.3129e-17	-0.0912555	1.03899	6.90723	0.0497283
5.81466	-122.486	395.414	-17.9546	0.153109	1.70748e-17	0.000360136	1.85346	-5.98343	0.271691	70.6125	424.526	9.48075	-0.369185	-4.0932e-17	-0.0948758	1.58798	9.547	0.213209
5.82465	-107.326	332.122	-11.8712	0.165831	1.84685e-17	0.00759086	1.55574	-4.81427	0.172078	88.3084	493.942	17.5535	-0.352687	-3.90577e-17	-0.097918	2.20123	12.3123	0.437549
5.83464	-90.7961	271.387	-6.86795	0.179808	2.00016e-17	0.0188811	1.25736	-3.75821	0.0951086	105.616	562.648	26.1846	-0.338689	-3.74633e-17	-0.100432	2.8365	15.1108	0.703229
5.84463	-73.8965	215.09	-3.1895	0.19534	2.17086e-17	0.0343843	0.966686	-2.81372	0.0417237	121.763	629.028	34.8478	-0.326636	-3.60902e-17	-0.102503	3.43795	17.7605	0.983919
5.85462	-57.7096	164.658	-0.759858	0.21293	2.36462e-17	0.0543759	0.704289	-2.00949	0.00927332	135.901	691.431	43.1348	-0.316026	-3.48836e-17	-0.104242	3.96835	20.1899	1.25955
